<svg width="60" xmlns="http://www.w3.org/2000/svg" height="60" viewBox="0 0 60 60"><path fill="#bcc7ce" d="M0 0h60v60h-60z"/><g fill-rule="evenodd"><path fill="#a4b1b9" d="M30.1 54.8c-6.7 0-13.1-2.8-17.6-7.7l-.5-.5v-2.6h.2c.4-4 1.6-6.7 3.4-7.6 1.3-.6 2.9-1.1 4.9-1.6v-1l1-.3s.7-.2 1.7-.5c0-.5-.1-.7-.1-.9-.6-1-1.5-3.3-2.1-6l-1.7-1.4.2-.9s.2-.9 0-1.9c-.2-.9.1-1.5.3-1.8.3-.3.6-.5 1-.6.3-1.6.9-3.1 1.7-4.3-1.3-1.5-1.7-2.6-1.5-3.5.2-.9 1-1.5 1.9-1.5.7 0 1.3.3 1.9.6.3-.7.9-1.1 1.7-1.1.7 0 1.4.4 2.4.8.5.3 1.2.6 1.6.7 3.4.1 7.6 2.2 8.9 7.6.3.1.6.3.8.5.4.5.5 1.1.3 1.9-.2 1.2 0 2.4 0 2.4l.2.8-1.2 1.2c-.5 2.8-1.6 5.4-2.2 6.5-.1.1-.1.4-.1.8 1 .3 1.7.5 1.7.5l1 .4v.8c2.5.5 4.6 1.1 6.1 1.9 1.8.9 2.9 3.5 3.4 7.8l.1.6-.4.5c-4.6 5.9-11.5 9.4-19 9.4z"/><path fill="#fff" d="M45.4 36.8c-1.5-.8-3.9-1.5-7-2v-.9s-1-.4-2.6-.7c-.2-.8-.3-2 .2-2.8.5-.9 1.7-3.6 2.1-6.5l.9-.9s-.3-1.4 0-3c.2-.9-.4-.7-.9-.5-.9-7.1-6.3-7.7-7.8-7.7-1.4-.2-3.9-2.2-4.1-1.3-.1.9 1.2 1.8-.4 1.4-1.6-.4-3.1-1.8-3.3-.8-.2.7 1.2 2.3 2 3.1-1.2 1.3-2.1 3.2-2.4 6.1-.5-.3-1.4-.7-1.1.2.3 1.3 0 2.6 0 2.6l1.4 1.2c.5 2.7 1.5 5.1 2 6 .5.8.3 2.1.2 2.8-1.5.3-2.6.7-2.6.7v1.2c-2.5.5-4.4 1.1-5.8 1.7-2 1-2.6 5.7-2.7 7.9v.4c4.1 4.4 10 7.2 16.5 7.2 7.3 0 13.7-3.5 17.8-8.8-.1-2.3-.8-5.7-2.4-6.6z"/></g></svg>